<svg width="18" height="18" viewBox="0 0 18 18" fill="none" xmlns="http://www.w3.org/2000/svg">
<path d="M2.99951 15C2.58701 15 2.23401 14.8533 1.94051 14.5597C1.64651 14.2657 1.49951 13.9125 1.49951 13.5V4.5C1.49951 4.0875 1.64651 3.7345 1.94051 3.441C2.23401 3.147 2.58701 3 2.99951 3H14.9995C15.412 3 15.7653 3.147 16.0593 3.441C16.3528 3.7345 16.4995 4.0875 16.4995 4.5V13.5C16.4995 13.9125 16.3528 14.2657 16.0593 14.5597C15.7653 14.8533 15.412 15 14.9995 15H2.99951ZM14.9995 6L9.39326 9.50625C9.33076 9.54375 9.26501 9.57175 9.19601 9.59025C9.12751 9.60925 9.06201 9.61875 8.99951 9.61875C8.93701 9.61875 8.87151 9.60925 8.80301 9.59025C8.73401 9.57175 8.66826 9.54375 8.60576 9.50625L2.99951 6V13.5H14.9995V6ZM8.99951 8.25L14.9995 4.5H2.99951L8.99951 8.25ZM2.99951 6.1875V5.08125V5.1V5.09025V6.1875Z" fill="black"/>
</svg>
