<svg width="18" height="18" viewBox="0 0 18 18" fill="none" xmlns="http://www.w3.org/2000/svg">
<path d="M11.6245 0.75H5.62451C5.12723 0.75 4.65032 0.947544 4.29869 1.29917C3.94706 1.65081 3.74951 2.12772 3.74951 2.625V15.375C3.74951 15.8723 3.94706 16.3492 4.29869 16.7008C4.65032 17.0525 5.12723 17.25 5.62451 17.25H11.6245C12.1218 17.25 12.5987 17.0525 12.9503 16.7008C13.302 16.3492 13.4995 15.8723 13.4995 15.375V2.625C13.4995 2.12772 13.302 1.65081 12.9503 1.29917C12.5987 0.947544 12.1218 0.75 11.6245 0.75ZM8.62451 16.5C8.00201 16.5 7.49951 15.9975 7.49951 15.375C7.49951 14.7525 8.00201 14.25 8.62451 14.25C9.24701 14.25 9.74951 14.7525 9.74951 15.375C9.74951 15.9975 9.24701 16.5 8.62451 16.5ZM11.9995 13.5H5.24951V3H11.9995V13.5Z" fill="black"/>
</svg>
